<svg width="37" height="40" viewBox="0 0 37 40" fill="none" xmlns="http://www.w3.org/2000/svg">
<g clip-path="url(#clip0_2455_749)">
<path d="M28.8618 39.5841C30.2581 35.0804 30.1869 30.1634 27.8444 26.1558C27.2197 25.0718 26.4779 24.1141 25.6144 23.2483C23.9126 21.5534 22.592 19.4451 21.8295 17.1761C19.9463 11.7928 21.4139 5.17629 26.076 1.80258C26.9303 1.18249 27.8581 0.695614 28.8618 0.417725C27.9018 3.60082 27.5963 7.12841 28.4208 10.2105C29.0868 12.7735 30.304 14.9277 32.1092 16.7558C33.8086 18.4553 35.1269 20.5636 35.8871 22.8326C37.4005 27.2076 36.7483 32.3543 33.9441 35.9554C32.6351 37.6365 30.9034 38.9961 28.864 39.5886L28.8618 39.5841Z" fill="#204FC7"/>
<path d="M16.1561 39.5591C17.2907 35.9029 17.231 31.9091 15.3317 28.6548C14.8241 27.7752 14.2224 26.9967 13.5196 26.2939C12.1371 24.9183 11.0646 23.205 10.4445 21.3631C8.91495 16.9904 10.1069 11.6186 13.8917 8.87875C14.5853 8.3758 15.3386 7.98078 16.1539 7.75342C15.373 10.3371 15.125 13.2033 15.7956 15.7043C16.3376 17.785 17.3251 19.535 18.7904 21.0186C20.1706 22.3989 21.2408 24.1099 21.8586 25.9517C23.0873 29.5046 22.5568 33.6844 20.2809 36.608C19.2175 37.9722 17.812 39.0768 16.1561 39.5568V39.5591Z" fill="#0282F9"/>
<path d="M5.08467 39.566C5.99183 36.6424 5.9459 33.4479 4.42555 30.8458C4.02135 30.143 3.53906 29.5207 2.97639 28.958C1.86942 27.8579 1.01279 26.4868 0.51902 25.0147C-0.705072 21.5193 0.250317 17.2223 3.27725 15.0314C3.83073 14.6295 4.43473 14.3125 5.08697 14.1311C4.46229 16.198 4.26479 18.4901 4.7999 20.4904C5.23395 22.1554 6.02169 23.5541 7.19526 24.7414C8.29763 25.8438 9.15426 27.2149 9.64803 28.687C10.631 31.5279 10.2061 34.8695 8.3849 37.2097C7.53515 38.3006 6.40982 39.1848 5.08697 39.5683L5.08467 39.566Z" fill="#1AABFF"/>
</g>
<defs>
<clipPath id="clip0_2455_749">
<rect width="36.6791" height="39.1686" fill="white" transform="translate(0 0.415771)"/>
</clipPath>
</defs>
</svg>
