<svg width="91" height="24" viewBox="0 0 91 24" fill="none" xmlns="http://www.w3.org/2000/svg">
<g clip-path="url(#clip0_4711_1731)">
<path d="M15.5011 19.6565L10.775 24H9.70605V12.0005V0H10.7745L15.5011 4.39296V12.0245V19.6565Z" fill="#F5F6F7"></path>
<path d="M7.7268 20.0883L4.44216 21.7304H3.86328V12.0483V2.36621H4.44216L7.7268 4.00781V12.0483V20.0883Z" fill="#F5F6F7"></path>
<path d="M1.93152 18.9461L0.3048 19.4607H0V12.024V4.5874H0.3048L1.93152 5.10244V12.024V18.9461Z" fill="#F5F6F7"></path>
<path d="M58.027 20.4318C57.3458 20.0991 56.8202 19.6326 56.4449 19.0321C56.0695 18.4316 55.8818 17.7342 55.8818 16.9513C55.8818 16.1147 56.0964 15.3745 56.5255 14.7361C56.9546 14.0977 57.5551 13.6043 58.3332 13.2558C59.1108 12.9073 60.0065 12.7302 61.015 12.7302H63.7932C64.0884 12.7302 64.3135 12.6711 64.4585 12.5588C64.6087 12.446 64.6836 12.2747 64.6836 12.0491C64.6836 11.2446 64.469 10.515 63.906 10.0163C63.3377 9.51754 62.5385 9.29242 61.5406 9.29242C60.929 9.29242 60.5642 9.2977 59.969 9.57658C59.4862 9.8017 59.3791 9.88762 58.9985 10.2577C58.6606 10.5851 58.4834 11.3679 58.4566 11.8561H56.2092C56.2788 11.0031 56.2788 10.2577 56.7511 9.52282C57.223 8.78794 57.931 8.28922 58.7676 7.89754C59.6042 7.50586 60.5374 7.30762 61.5674 7.30762C62.683 7.30762 63.6698 7.51162 64.5281 7.92442C65.381 8.33722 66.0406 8.90602 66.5071 9.6409C66.9684 10.3758 67.1882 11.234 67.1882 12.2099V20.5983H64.6836V18.5439L64.555 18.8065C64.3082 19.2251 63.9814 19.5947 63.5628 19.922C63.1442 20.2436 62.6618 20.4956 62.1199 20.6675C61.578 20.8393 61.0044 20.93 60.3929 20.93C59.5025 20.93 58.7196 20.7639 58.0385 20.4313H58.0279L58.027 20.4318ZM63.6694 17.8412C64.3399 17.1279 64.6778 16.1569 64.6778 14.9343V14.6982H61.2718C60.3977 14.6982 59.7055 14.8964 59.191 15.2881C58.6759 15.6798 58.4186 16.2159 58.4186 16.8971C58.4186 17.5086 58.6438 17.9967 59.0839 18.3611C59.5289 18.7259 60.1246 18.9135 60.8753 18.9135C62.0609 18.9135 62.994 18.554 63.6641 17.8407H63.6694V17.8412ZM56.7454 9.56026C57.2494 8.86858 57.8878 8.2729 58.7244 7.8817C59.561 7.49002 60.5321 7.34554 61.5617 7.34554" fill="#F5F6F7"></path>
<path d="M43.6358 20.035C42.6441 19.4379 41.903 18.6219 41.4071 17.5928C40.9113 16.5584 40.666 15.3958 40.666 14.1003C40.666 12.8048 40.9113 11.6691 41.4071 10.6452C41.903 9.6214 42.6441 8.81116 43.6358 8.21404C44.6275 7.61692 45.838 7.31836 47.2723 7.31836C48.7065 7.31836 49.9171 7.61692 50.9087 8.21404C51.9004 8.81116 52.6415 9.62716 53.1374 10.6563C53.6332 11.6907 53.8785 12.8369 53.8785 14.1008C53.8785 15.3646 53.6332 16.5377 53.1374 17.5664C52.6415 18.6008 51.9004 19.4168 50.9087 20.0244C49.9171 20.6268 48.7065 20.9307 47.2723 20.9307C45.838 20.9307 44.6275 20.6321 43.6358 20.035ZM44.2118 17.7689C44.8516 18.51 45.8702 18.8835 47.2723 18.8835C48.6743 18.8835 49.6929 18.51 50.3327 17.7689C50.9726 17.0278 51.2923 15.812 51.2923 14.1219C51.2923 12.4318 50.9726 11.216 50.3327 10.4748C49.6929 9.73372 48.6743 9.36028 47.2723 9.36028C45.8702 9.36028 44.8516 9.73372 44.2118 10.4748C43.5719 11.216 43.2523 12.4318 43.2523 14.1219C43.2523 15.812 43.5719 17.0278 44.2118 17.7689Z" fill="#F5F6F7"></path>
<path d="M72.0461 16.2598C72.0994 17.095 72.4186 17.7651 73.0143 18.2758C73.61 18.7865 74.4932 19.0419 75.6687 19.0419C76.7434 19.0419 77.4826 18.8767 77.892 18.5417C78.3015 18.2119 78.504 17.7223 78.504 17.0734C78.504 16.5468 78.3447 16.1316 78.0308 15.834C77.7168 15.5359 77.2277 15.3339 76.5624 15.2331L73.3973 14.7492C72.2909 14.5788 71.4452 14.1958 70.8548 13.6001C70.2696 13.0044 69.9716 12.2225 69.9716 11.2486C69.9716 10.0251 70.4396 9.06218 71.376 8.36522C72.312 7.66826 73.6157 7.31738 75.2808 7.31738C76.946 7.31738 78.2012 7.68986 79.1856 8.42906C80.1749 9.16826 80.7068 10.1527 80.7922 11.3763H78.2386C78.1695 10.7484 77.882 10.2271 77.3717 9.8177C76.861 9.40826 76.1376 9.2057 75.2012 9.2057C74.2647 9.2057 73.5735 9.37082 73.1213 9.70586C72.6692 10.0409 72.446 10.4772 72.446 11.0196C72.446 11.4454 72.5789 11.7963 72.8396 12.0675C73.1055 12.3387 73.5576 12.5249 74.2066 12.6315L76.9623 13.0409C78.4623 13.2641 79.5053 13.7004 80.101 14.3547C80.6967 15.0089 80.9948 15.8763 80.9948 16.9452C80.9948 18.2753 80.5532 19.2699 79.6647 19.9347C78.7815 20.5995 77.4197 20.9292 75.5794 20.9292C73.5687 20.9292 72.0792 20.4982 71.1111 19.6419C70.1429 18.7803 69.6533 17.6523 69.6533 16.2588H72.0471L72.0461 16.2598Z" fill="#F5F6F7"></path>
<path d="M36.3312 15.199C36.0807 16.1479 35.6328 16.9212 34.9877 17.513C34.0652 18.3554 32.7111 18.7822 30.9197 18.7822C28.9253 18.7822 27.4594 18.2172 26.5316 17.0815C25.5984 15.9458 25.1348 14.2558 25.1348 12.0002C25.1348 9.74472 25.6148 8.05464 26.569 6.91896C27.5232 5.78328 29.0002 5.21784 30.9946 5.21784C32.7168 5.21784 34.0234 5.6124 34.908 6.39624C35.58 6.99336 36.0437 7.79304 36.3048 8.80104H39.0293C38.7096 7.09992 38.0108 5.7564 36.9231 4.78056C35.6276 3.618 33.6653 3.04248 31.0364 3.04248C29.1063 3.04248 27.4906 3.43176 26.1845 4.20504C24.8784 4.9836 23.9132 6.0444 23.2944 7.39368C22.6704 8.74248 22.3613 10.2785 22.3613 12.0002C22.3613 13.722 22.6704 15.2849 23.2839 16.6337C23.8968 17.9825 24.8463 19.0385 26.126 19.806C27.4056 20.5735 29.016 20.9575 30.962 20.9575C35.6756 20.9575 38.3789 19.0327 39.0879 15.199H36.326H36.3312Z" fill="#F5F6F7"></path>
<path d="M87.3018 7.77588H90.9277V9.81982H87.3018V16.8657C87.3018 17.5174 87.4663 18.0161 87.7998 18.3774C88.1343 18.7334 88.5994 18.9087 89.2021 18.9087H90.9277V20.9575H89.0264C88.1995 20.9575 87.4766 20.7932 86.8633 20.4702C86.2436 20.1472 85.7721 19.681 85.4385 19.0786C85.1044 18.4815 84.9404 17.7635 84.9404 16.936V9.81982H82.4307V7.77588H84.9404V4.83936H87.3018V7.77588Z" fill="#F5F6F7"></path>
</g>
<defs>
<clipPath id="clip0_4711_1731">
<rect width="90.9283" height="24" fill="white"></rect>
</clipPath>
</defs>
</svg>