<svg width="132" height="32" viewBox="0 0 132 32" fill="none" xmlns="http://www.w3.org/2000/svg"><path d="M19.6862 11.2935L13.736 13.84C13.4206 13.97 13.0859 13.7005 13.1551 13.372L13.7167 10.051C13.9781 8.50519 12.7601 7.09961 11.1607 7.09961C9.56048 7.09961 8.34323 8.50519 8.60471 10.051L9.16626 13.372C9.23626 13.7005 8.90077 13.97 8.5854 13.84L2.63513 11.2935" stroke="#181818" stroke-width="1.64438" stroke-miterlimit="10"></path><path d="M14.7811 26.2535L11.5256 20.6149C11.3586 20.3471 10.9628 20.3471 10.7958 20.6149L7.54022 26.2535" stroke="#181818" stroke-width="1.64438" stroke-miterlimit="10"></path><path d="M21.0877 16.4434L14.86 17.9582C14.5555 18.0398 14.4453 18.4106 14.657 18.6419L19.1466 23.2171" stroke="#181818" stroke-width="1.64438" stroke-miterlimit="10"></path><path d="M1.00006 16.4434L7.45016 17.9582C7.76552 18.0398 7.87967 18.4106 7.6604 18.6419L3.01048 23.2171" stroke="#181818" stroke-width="1.64438" stroke-miterlimit="10"></path><path d="M43.6393 26H40.5208L38.6666 21.0835H29.8449L28.0188 26H25.0127L32.4577 6.61482H36.4471L43.6393 26ZM34.2557 9.2557L30.8001 18.555H37.7395L34.2557 9.2557ZM48.0302 26H45.1645V6.61482H48.0302V26ZM58.3108 26.1124H54.4337C52.9447 26.1124 52.13 25.2695 52.13 23.7243V14.116H49.4891V12.0651C52.2704 11.9528 52.6919 10.8009 52.72 7.76669H54.8832V11.9528H58.3108V14.116H54.9675V22.8534C54.9675 23.5558 55.2204 23.8367 55.9789 23.8367H58.3108V26.1124ZM72.8494 19.5102H61.7521C61.9207 22.2915 63.7468 23.9491 66.0506 23.9491C68.0734 23.9491 69.3095 23.022 69.8433 21.3644H72.737C72.0347 24.2862 69.45 26.4214 66.0506 26.4214C61.8083 26.4214 58.9427 23.4715 58.9427 18.9764C58.9427 14.5094 61.9207 11.5313 66.0506 11.5313C70.3209 11.5313 72.8494 14.7903 72.8494 18.9764V19.5102ZM66.0225 13.9194C63.9435 13.9194 62.1454 15.2398 61.8083 17.5155H70.0119C69.7309 15.3522 68.1576 13.9194 66.0225 13.9194ZM82.9977 11.6999H83.2224V14.7903C82.8291 14.7341 82.5762 14.706 82.1548 14.706C79.7387 14.706 77.8564 16.1669 77.8564 19.1449V26H74.9907V11.9528H77.8283V14.8184C78.8116 12.7675 80.722 11.6999 82.9977 11.6999ZM88.2709 26H86.7819V6.61482H89.4227L96.5868 24.3705L103.751 6.61482H106.336V26H104.762V7.87907L97.4297 26H95.6597L88.2709 7.7386V26ZM122.624 18.9764H110.572C110.572 22.5163 112.763 25.0448 116.078 25.0448C118.466 25.0448 120.18 23.9491 120.939 21.6454H122.512C121.725 24.511 119.309 26.4214 116.078 26.4214C111.752 26.4214 108.999 23.2467 108.999 18.9764C108.999 14.7341 111.696 11.5313 115.91 11.5313C120.04 11.5313 122.624 14.6217 122.624 18.7797V18.9764ZM115.91 12.908C113.185 12.908 111.05 14.6779 110.628 17.8245H120.995C120.742 15.0151 119 12.908 115.91 12.908Z" fill="#181818"></path></svg>