<svg width="72" height="75" viewBox="0 0 72 75" fill="none" xmlns="http://www.w3.org/2000/svg">
<path d="M51.1323 9.99152C45.2271 3.41818 42.1993 10.7954 41.4235 15.3057C41.9059 20.6655 15.1427 41.1667 1.70082 50.7473L12.0927 63.8052C23.3013 54.4256 47.9692 35.2995 56.9719 33.8326C65.9746 32.3657 63.5836 27.6901 61.2628 25.5357C71.4369 17.5154 63.6343 16.3667 58.4612 16.7949C62.6052 6.45142 55.3019 7.94953 51.1323 9.99152Z" fill="#5A5A5A" stroke="black" stroke-width="2"/>
<path d="M45.049 14.9639C45.6073 15.9761 47.0442 16.2536 48.2584 15.5839C49.4727 14.9141 50.0044 13.5506 49.4461 12.5385C48.8878 11.5263 47.4509 11.2488 46.2366 11.9186C45.0224 12.5883 44.4907 13.9518 45.049 14.9639Z" fill="#FCDDEC"/>
<path d="M53.1703 15.0831C53.8992 16.2098 55.5849 16.4149 56.9354 15.5411C58.2859 14.6674 58.7898 13.0458 58.0609 11.9191C57.332 10.7925 55.6463 10.5874 54.2958 11.4611C52.9453 12.3349 52.4414 13.9565 53.1703 15.0831Z" fill="#FCDDEC"/>
<path d="M61.4612 23.2188C60.0528 23.9957 58.3855 23.6729 57.7374 22.498C57.0892 21.323 57.7056 19.7405 59.114 18.9636C60.5224 18.1867 62.1898 18.5095 62.8379 19.6845C63.486 20.8595 62.8696 22.4419 61.4612 23.2188Z" fill="#FCDDEC"/>
<path d="M56.397 30.1182C56.9553 31.1304 58.3922 31.4079 59.6065 30.7382C60.8207 30.0684 61.3524 28.7049 60.7941 27.6928C60.2358 26.6806 58.7989 26.4031 57.5846 27.0728C56.3704 27.7426 55.8387 29.1061 56.397 30.1182Z" fill="#FCDDEC"/>
<path d="M48.3449 18.6754C46.8422 19.0352 44.8091 20.2123 44.1753 22.4791C43.5423 24.7475 44.0883 26.3079 45.1791 27.9051C46.27 29.5024 48.4532 31.0587 50.9808 29.6295C53.5084 28.2003 55.8456 24.9753 55.6234 22.5513C55.4028 20.1264 54.0956 18.6032 52.5424 18.271C51.0395 17.948 49.1825 18.4746 48.3449 18.6754Z" fill="#FCDDEC"/>
</svg>
