<svg width="29" height="26" viewBox="0 0 29 26" fill="none" xmlns="http://www.w3.org/2000/svg">
<path d="M4.45122 13.2829C5.54901 13.6449 6.79095 12.8707 7.22517 11.5537C7.65939 10.2368 7.12146 8.87573 6.02368 8.51378C4.92589 8.15182 3.68394 8.92601 3.24972 10.243C2.8155 11.5599 3.35343 12.921 4.45122 13.2829Z" fill="#F0F0F0"/>
<path d="M10.4844 7.84511C11.7851 8.17493 13.16 7.17836 13.5554 5.61923C13.9507 4.0601 13.2167 2.5288 11.916 2.19899C10.6153 1.86917 9.24037 2.86573 8.84503 4.42487C8.44969 5.984 9.18365 7.5153 10.4844 7.84511Z" fill="#F0F0F0"/>
<path d="M22.0957 8.16689C21.5921 9.69446 20.1505 10.5923 18.8761 10.1721C17.6017 9.75191 16.9769 8.17277 17.4805 6.6452C17.9842 5.11763 19.4257 4.21981 20.7001 4.64C21.9745 5.06019 22.5994 6.63933 22.0957 8.16689Z" fill="#F0F0F0"/>
<path d="M23.0781 16.6689C24.1759 17.0309 25.4178 16.2567 25.8521 14.9397C26.2863 13.6228 25.7484 12.2617 24.6506 11.8998C23.5528 11.5378 22.3108 12.312 21.8766 13.629C21.4424 14.9459 21.9803 16.307 23.0781 16.6689Z" fill="#F0F0F0"/>
<path d="M9.3917 13.7607C8.53525 15.0467 7.84597 17.2926 8.92362 19.3852C10.003 21.4783 11.4648 22.2504 13.3509 22.6789C15.2371 23.1073 17.896 22.7626 18.7761 19.9955C19.6562 17.2284 19.1751 13.2748 17.363 11.6494C15.5516 10.0223 13.5573 9.79527 12.1929 10.6085C10.8717 11.3943 9.86896 13.0437 9.3917 13.7607Z" fill="#F0F0F0"/>
</svg>
