<svg width="586" height="97" viewBox="0 0 586 97" fill="none" xmlns="http://www.w3.org/2000/svg">
<path opacity="0.25" d="M34.274 96.92C25.9113 96.92 19.5967 94.5733 15.33 89.88C11.0633 85.1867 8.93 78.9147 8.93 71.064V52.504H0.61V33.56H8.93V15.128H37.73V33.56H51.042V52.504H37.73V66.84C37.73 69.656 38.242 71.6613 39.266 72.856C40.29 74.0507 42.0393 74.648 44.514 74.648C47.6713 74.648 50.7007 73.752 53.602 71.96V93.208C50.9567 94.488 48.1833 95.4267 45.282 96.024C42.3807 96.6213 38.7113 96.92 34.274 96.92ZM57.48 0.407997H86.28V38.296C91.8267 33.8587 98.056 31.64 104.968 31.64C113.928 31.64 120.456 33.9013 124.552 38.424C128.733 42.8613 130.824 49.048 130.824 56.984V95H102.024V61.208C102.024 58.8187 101.512 57.0267 100.488 55.832C99.5493 54.552 97.9707 53.912 95.752 53.912C91.5707 53.912 88.4133 55.832 86.28 59.672V95H57.48V0.407997ZM161.038 96.92C153.017 96.92 146.617 95.1707 141.838 91.672C137.059 88.088 134.67 82.8827 134.67 76.056C134.67 69.144 136.974 63.896 141.582 60.312C146.275 56.728 153.187 54.936 162.318 54.936C165.049 54.936 168.035 55.2773 171.278 55.96C174.521 56.5573 177.209 57.2827 179.342 58.136V57.112C179.342 54.8933 177.934 53.144 175.118 51.864C172.302 50.584 168.59 49.944 163.982 49.944C156.558 49.944 149.774 51.48 143.63 54.552V36.248C146.446 34.8827 150.158 33.7733 154.766 32.92C159.374 32.0667 164.451 31.64 169.998 31.64C182.286 31.64 191.715 33.9013 198.286 38.424C204.857 42.9467 208.142 49.3467 208.142 57.624V95H181.006V90.52C179.043 92.312 176.227 93.8053 172.558 95C168.974 96.28 165.134 96.92 161.038 96.92ZM170.254 81.048C172.046 81.048 173.753 80.7067 175.374 80.024C177.081 79.3413 178.403 78.488 179.342 77.464V73.368C176.526 71.7467 173.497 70.936 170.254 70.936C168.462 70.936 167.054 71.4053 166.03 72.344C165.006 73.2827 164.494 74.52 164.494 76.056C164.494 77.5067 164.963 78.7013 165.902 79.64C166.926 80.5787 168.377 81.048 170.254 81.048ZM241.774 96.92C233.411 96.92 227.097 94.5733 222.83 89.88C218.563 85.1867 216.43 78.9147 216.43 71.064V52.504H208.11V33.56H216.43V15.128H245.23V33.56H258.542V52.504H245.23V66.84C245.23 69.656 245.742 71.6613 246.766 72.856C247.79 74.0507 249.539 74.648 252.014 74.648C255.171 74.648 258.201 73.752 261.102 71.96V93.208C258.457 94.488 255.683 95.4267 252.782 96.024C249.881 96.6213 246.211 96.92 241.774 96.92ZM267.106 3.60799H294.37L283.49 29.592H259.17L267.106 3.60799ZM325.158 96.92C319.782 96.92 314.193 96.4507 308.39 95.512C302.673 94.5733 298.107 93.208 294.694 91.416V71.96C298.278 74.008 302.673 75.7573 307.878 77.208C313.083 78.6587 317.734 79.384 321.83 79.384C323.793 79.384 325.201 79.2987 326.054 79.128C326.907 78.9573 327.334 78.5733 327.334 77.976C327.334 77.5493 326.95 77.208 326.182 76.952C325.414 76.696 324.39 76.44 323.11 76.184C320.038 75.5867 317.307 74.9467 314.918 74.264C307.153 71.8747 301.649 69.144 298.406 66.072C295.249 62.9147 293.67 58.4773 293.67 52.76C293.67 45.592 296.486 40.3013 302.118 36.888C307.75 33.3893 315.515 31.64 325.414 31.64C330.022 31.64 335.099 32.152 340.646 33.176C346.278 34.2 350.417 35.5227 353.062 37.144V56.6C350.502 54.808 346.875 53.272 342.182 51.992C337.489 50.6267 333.307 49.944 329.638 49.944C327.931 49.944 326.523 50.072 325.414 50.328C324.305 50.584 323.75 50.9253 323.75 51.352C323.75 51.7787 324.219 52.1627 325.158 52.504C326.097 52.8453 327.59 53.1867 329.638 53.528C333.649 54.296 335.91 54.7653 336.422 54.936C342.054 56.3867 346.363 58.0933 349.35 60.056C352.422 61.9333 354.513 64.152 355.622 66.712C356.817 69.272 357.414 72.5147 357.414 76.44C357.414 82.6693 354.641 87.6613 349.094 91.416C343.547 95.0853 335.569 96.92 325.158 96.92ZM402.23 33.56H428.726V38.68C433.59 33.9867 439.691 31.64 447.03 31.64C451.382 31.64 454.881 32.2373 457.526 33.432C460.257 34.5413 462.561 36.248 464.438 38.552C466.998 36.4187 469.985 34.7547 473.398 33.56C476.811 32.28 480.353 31.64 484.022 31.64C492.47 31.64 498.443 33.816 501.942 38.168C505.441 42.52 507.19 48.792 507.19 56.984V95H479.67V61.208C479.67 58.7333 479.243 56.8987 478.39 55.704C477.622 54.5093 476.171 53.912 474.038 53.912C472.246 53.912 470.625 54.3387 469.174 55.192V95H441.654V59.8C441.654 57.8373 441.27 56.3867 440.502 55.448C439.734 54.424 438.454 53.912 436.662 53.912C433.761 53.912 431.457 55.5333 429.75 58.776V95H402.23V33.56ZM552.984 96.92C540.355 96.92 530.499 94.104 523.416 88.472C516.419 82.84 512.92 74.8613 512.92 64.536C512.92 54.3813 516.077 46.36 522.392 40.472C528.792 34.584 537.965 31.64 549.912 31.64C557.507 31.64 563.992 33.048 569.368 35.864C574.829 38.68 578.925 42.52 581.656 47.384C584.472 52.248 585.88 57.7093 585.88 63.768V72.088H540.312C542.787 76.5253 548.376 78.744 557.08 78.744C561.091 78.744 565.272 78.4453 569.624 77.848C574.061 77.1653 577.816 76.2267 580.888 75.032V92.312C577.475 93.6773 573.251 94.7867 568.216 95.64C563.267 96.4933 558.189 96.92 552.984 96.92ZM558.744 56.344C557.72 52.0773 554.605 49.944 549.4 49.944C544.365 49.944 541.336 52.0773 540.312 56.344H558.744Z" fill="#97ABFF"/>
</svg>
